<?xml version="1.0" encoding="UTF-8" standalone="no"?>
<!-- Generator: Adobe Illustrator 18.1.1, SVG Export Plug-In . SVG Version: 6.00 Build 0)  -->

<svg
   xmlns:dc="http://purl.org/dc/elements/1.1/"
   xmlns:cc="http://creativecommons.org/ns#"
   xmlns:rdf="http://www.w3.org/1999/02/22-rdf-syntax-ns#"
   xmlns:svg="http://www.w3.org/2000/svg"
   xmlns="http://www.w3.org/2000/svg"
   xmlns:sodipodi="http://sodipodi.sourceforge.net/DTD/sodipodi-0.dtd"
   xmlns:inkscape="http://www.inkscape.org/namespaces/inkscape"
   version="1.1"
   id="Capa_1"
   x="0px"
   y="0px"
   viewBox="0 0 16.003 16.003"
   style="enable-background:new 0 0 16.003 16.003;"
   xml:space="preserve"
   inkscape:version="0.48.1 "
   width="100%"
   height="100%"
   sodipodi:docname="icnTwit.svg"><metadata
   id="metadata43"><rdf:RDF><cc:Work
       rdf:about=""><dc:format>image/svg+xml</dc:format><dc:type
         rdf:resource="http://purl.org/dc/dcmitype/StillImage" /><dc:title></dc:title></cc:Work></rdf:RDF></metadata><defs
   id="defs41" /><sodipodi:namedview
   pagecolor="#ffffff"
   bordercolor="#666666"
   borderopacity="1"
   objecttolerance="10"
   gridtolerance="10"
   guidetolerance="10"
   inkscape:pageopacity="0"
   inkscape:pageshadow="2"
   inkscape:window-width="1116"
   inkscape:window-height="756"
   id="namedview39"
   showgrid="false"
   inkscape:zoom="18.18409"
   inkscape:cx="-1.0998628"
   inkscape:cy="8.0014998"
   inkscape:window-x="0"
   inkscape:window-y="0"
   inkscape:window-maximized="0"
   inkscape:current-layer="Capa_1" />
<g
   id="g3"
   style="fill:#4bc1e6;fill-opacity:1">
	<g
   id="g5"
   style="fill:#4bc1e6;fill-opacity:1">
		<path
   style="fill:#4bc1e6;fill-opacity:1"
   d="M16.003,3.04c-0.589,0.261-1.221,0.438-1.885,0.517c0.678-0.406,1.197-1.05,1.443-1.815    c-0.636,0.376-1.338,0.649-2.086,0.797c-0.599-0.639-1.451-1.037-2.396-1.037c-1.813,0-3.283,1.47-3.283,3.282    c0,0.257,0.029,0.508,0.085,0.748c-2.728-0.137-5.147-1.444-6.766-3.43C0.832,2.586,0.671,3.15,0.671,3.752    c0,1.139,0.58,2.144,1.46,2.732C1.593,6.466,1.087,6.318,0.644,6.072v0.041c0,1.59,1.132,2.917,2.633,3.219    C3.002,9.406,2.712,9.447,2.412,9.447c-0.212,0-0.417-0.021-0.618-0.061c0.418,1.305,1.63,2.254,3.066,2.28    c-1.123,0.88-2.539,1.403-4.077,1.403c-0.265,0-0.526-0.016-0.783-0.045c1.453,0.933,3.178,1.477,5.032,1.477    c6.039,0,9.34-5.002,9.34-9.34l-0.011-0.425C15.006,4.276,15.564,3.698,16.003,3.04z"
   id="path7" />
	</g>
</g>
<g
   id="g9">
</g>
<g
   id="g11">
</g>
<g
   id="g13">
</g>
<g
   id="g15">
</g>
<g
   id="g17">
</g>
<g
   id="g19">
</g>
<g
   id="g21">
</g>
<g
   id="g23">
</g>
<g
   id="g25">
</g>
<g
   id="g27">
</g>
<g
   id="g29">
</g>
<g
   id="g31">
</g>
<g
   id="g33">
</g>
<g
   id="g35">
</g>
<g
   id="g37">
</g>
</svg>