<?xml version="1.0" encoding="UTF-8" standalone="no"?>
<!-- Generator: Adobe Illustrator 18.1.1, SVG Export Plug-In . SVG Version: 6.00 Build 0)  -->

<svg
   xmlns:dc="http://purl.org/dc/elements/1.1/"
   xmlns:cc="http://creativecommons.org/ns#"
   xmlns:rdf="http://www.w3.org/1999/02/22-rdf-syntax-ns#"
   xmlns:svg="http://www.w3.org/2000/svg"
   xmlns="http://www.w3.org/2000/svg"
   xmlns:sodipodi="http://sodipodi.sourceforge.net/DTD/sodipodi-0.dtd"
   xmlns:inkscape="http://www.inkscape.org/namespaces/inkscape"
   version="1.1"
   id="Capa_1"
   x="0px"
   y="0px"
   viewBox="0 0 23.302 23.302"
   style="enable-background:new 0 0 23.302 23.302;"
   xml:space="preserve"
   inkscape:version="0.48.1 "
   width="100%"
   height="100%"
   sodipodi:docname="icnYout.svg"><metadata
   id="metadata41"><rdf:RDF><cc:Work
       rdf:about=""><dc:format>image/svg+xml</dc:format><dc:type
         rdf:resource="http://purl.org/dc/dcmitype/StillImage" /><dc:title></dc:title></cc:Work></rdf:RDF></metadata><defs
   id="defs39" /><sodipodi:namedview
   pagecolor="#ffffff"
   bordercolor="#666666"
   borderopacity="1"
   objecttolerance="10"
   gridtolerance="10"
   guidetolerance="10"
   inkscape:pageopacity="0"
   inkscape:pageshadow="2"
   inkscape:window-width="1920"
   inkscape:window-height="1017"
   id="namedview37"
   showgrid="false"
   inkscape:zoom="12.488198"
   inkscape:cx="-8.0075605"
   inkscape:cy="-7.5671447"
   inkscape:window-x="-8"
   inkscape:window-y="-8"
   inkscape:window-maximized="1"
   inkscape:current-layer="Capa_1" />

<g
   id="g7">
</g>
<g
   id="g9">
</g>
<g
   id="g11">
</g>
<g
   id="g13">
</g>
<g
   id="g15">
</g>
<g
   id="g17">
</g>
<g
   id="g19">
</g>
<g
   id="g21">
</g>
<g
   id="g23">
</g>
<g
   id="g25">
</g>
<g
   id="g27">
</g>
<g
   id="g29">
</g>
<g
   id="g31">
</g>
<g
   id="g33">
</g>
<g
   id="g35">
</g>
<g
   transform="matrix(0.25333333,0,0,0.25333333,0.3975734,0.25928512)"
   id="g3"
   style="fill:#7e2326;fill-opacity:1"><path
     inkscape:connector-curvature="0"
     id="YouTube"
     d="M 70.939,65.832 H 66 l 0.023,-2.869 c 0,-1.275 1.047,-2.318 2.326,-2.318 h 0.315 c 1.282,0 2.332,1.043 2.332,2.318 l -0.057,2.869 z M 52.413,59.684 c -1.253,0 -2.278,0.842 -2.278,1.873 V 75.51 c 0,1.029 1.025,1.869 2.278,1.869 1.258,0 2.284,-0.84 2.284,-1.869 V 61.557 c 0,-1.032 -1.026,-1.873 -2.284,-1.873 z M 82.5,51.879 V 78.423 C 82.5,84.79 76.979,90 70.23,90 H 19.771 C 13.02,90 7.5,84.79 7.5,78.423 V 51.879 c 0,-6.367 5.52,-11.578 12.271,-11.578 H 70.23 c 6.749,0 12.27,5.211 12.27,11.578 z M 23.137,81.305 23.133,53.344 29.388,53.346 V 49.203 L 12.714,49.178 v 4.073 l 5.205,0.015 v 28.039 h 5.218 z M 41.887,57.509 H 36.672 V 72.44 c 0,2.16 0.131,3.24 -0.008,3.621 -0.424,1.158 -2.33,2.388 -3.073,0.125 -0.126,-0.396 -0.015,-1.591 -0.017,-3.643 L 33.553,57.509 h -5.186 l 0.016,14.798 c 0.004,2.268 -0.051,3.959 0.018,4.729 0.127,1.357 0.082,2.939 1.341,3.843 2.346,1.69 6.843,-0.252 7.968,-2.668 l -0.01,3.083 4.188,0.005 -10e-4,-23.79 0,0 z M 58.57,74.607 58.559,62.18 c -0.004,-4.736 -3.547,-7.572 -8.356,-3.74 l 0.021,-9.239 -5.209,0.008 -0.025,31.89 4.284,-0.062 0.39,-1.986 c 5.473,5.021 8.914,1.58 8.906,-4.444 z m 16.321,-1.647 -3.91,0.021 c -0.002,0.155 -0.008,0.334 -0.01,0.529 v 2.182 c 0,1.168 -0.965,2.119 -2.137,2.119 h -0.766 c -1.174,0 -2.139,-0.951 -2.139,-2.119 v -0.242 -2.4 -3.097 h 8.954 v -3.37 c 0,-2.463 -0.063,-4.925 -0.267,-6.333 -0.641,-4.454 -6.893,-5.161 -10.051,-2.881 -0.991,0.712 -1.748,1.665 -2.188,2.945 -0.444,1.281 -0.665,3.031 -0.665,5.254 v 7.41 C 61.714,85.296 76.676,83.555 74.891,72.96 z M 54.833,32.732 c 0.269,0.654 0.687,1.184 1.254,1.584 0.56,0.394 1.276,0.592 2.134,0.592 0.752,0 1.418,-0.203 1.998,-0.622 0.578,-0.417 1.065,-1.04 1.463,-1.871 l -0.099,2.046 h 5.813 V 9.74 H 62.82 v 19.24 c 0,1.042 -0.858,1.895 -1.907,1.895 -1.043,0 -1.904,-0.853 -1.904,-1.895 V 9.74 h -4.776 v 16.674 c 0,2.124 0.039,3.54 0.102,4.258 0.065,0.713 0.229,1.397 0.498,2.06 z M 37.217,18.77 c 0,-2.373 0.198,-4.226 0.591,-5.562 0.396,-1.331 1.107,-2.401 2.137,-3.208 1.027,-0.811 2.342,-1.217 3.941,-1.217 1.345,0 2.497,0.264 3.459,0.781 0.967,0.52 1.713,1.195 2.23,2.028 0.527,0.836 0.885,1.695 1.076,2.574 0.195,0.891 0.291,2.235 0.291,4.048 v 6.252 c 0,2.293 -0.092,3.98 -0.271,5.051 -0.177,1.074 -0.557,2.07 -1.146,3.004 -0.58,0.924 -1.329,1.615 -2.237,2.056 -0.918,0.445 -1.968,0.663 -3.154,0.663 -1.325,0 -2.441,-0.183 -3.361,-0.565 -0.923,-0.38 -1.636,-0.953 -2.144,-1.714 -0.513,-0.762 -0.874,-1.69 -1.092,-2.772 -0.219,-1.081 -0.323,-2.707 -0.323,-4.874 l 0.003,-6.545 0,0 z m 4.553,9.82 c 0,1.4 1.042,2.543 2.311,2.543 1.27,0 2.308,-1.143 2.308,-2.543 V 15.43 c 0,-1.398 -1.038,-2.541 -2.308,-2.541 -1.269,0 -2.311,1.143 -2.311,2.541 v 13.16 z m -16.088,6.645 h 5.484 l 0.006,-18.96 6.48,-16.242 H 31.654 L 28.209,12.097 24.715,0 h -5.936 l 6.894,16.284 0.009,18.951 z"
     style="fill:#7e2326;fill-opacity:1" /></g></svg>